<svg width="19" height="19" viewBox="0 0 19 19" fill="none" xmlns="http://www.w3.org/2000/svg">
<path d="M2.11111 19H16.8889C17.4488 19 17.9857 18.7998 18.3817 18.4435C18.7776 18.0872 19 17.604 19 17.1001V8.55041C19.0008 8.42539 18.9742 8.30146 18.9216 8.18572C18.8691 8.06998 18.7917 7.9647 18.6939 7.87594L10.2494 0.276242C10.0517 0.0993107 9.78413 0 9.50527 0C9.22641 0 8.95887 0.0993107 8.7611 0.276242L0.316666 7.87594C0.216929 7.96392 0.137583 8.06884 0.0832255 8.18462C0.028868 8.30039 0.000579763 8.42473 0 8.55041V17.1001C0 17.604 0.22242 18.0872 0.618329 18.4435C1.01424 18.7998 1.55121 19 2.11111 19ZM7.38888 17.1001V12.3503H11.6111V17.1001H7.38888ZM2.11111 8.9399L9.49999 2.29016L16.8889 8.9399V17.1001H13.7222V12.3503C13.7222 11.8464 13.4998 11.3631 13.1039 11.0068C12.708 10.6505 12.171 10.4503 11.6111 10.4503H7.38888C6.82898 10.4503 6.29201 10.6505 5.8961 11.0068C5.50019 11.3631 5.27777 11.8464 5.27777 12.3503V17.1001H2.11111V8.9399Z" fill="black" fill-opacity="0.2"/>
</svg>
