<svg width="19" height="19" viewBox="0 0 19 19" fill="none" xmlns="http://www.w3.org/2000/svg">
<path d="M2.11111 18.9992H16.8889C17.4488 18.9992 17.9857 18.799 18.3817 18.4427C18.7776 18.0864 19 17.6032 19 17.0993V8.54962C19.0008 8.4246 18.9742 8.30066 18.9216 8.18492C18.8691 8.06918 18.7917 7.96391 18.6939 7.87515L10.2494 0.275449C10.0517 0.0985173 9.78413 -0.000793457 9.50527 -0.000793457C9.22641 -0.000793457 8.95887 0.0985173 8.7611 0.275449L0.316666 7.87515C0.216929 7.96313 0.137583 8.06805 0.0832255 8.18382C0.028868 8.2996 0.000579763 8.42393 0 8.54962V17.0993C0 17.6032 0.22242 18.0864 0.618329 18.4427C1.01424 18.799 1.55121 18.9992 2.11111 18.9992ZM7.38888 17.0993V12.3495H11.6111V17.0993H7.38888ZM2.11111 8.9391L9.49999 2.28937L16.8889 8.9391V17.0993H13.7222V12.3495C13.7222 11.8456 13.4998 11.3623 13.1039 11.006C12.708 10.6497 12.171 10.4495 11.6111 10.4495H7.38888C6.82898 10.4495 6.29201 10.6497 5.8961 11.006C5.50019 11.3623 5.27777 11.8456 5.27777 12.3495V17.0993H2.11111V8.9391Z" fill="#0058AC"/>
</svg>
