<svg width="19" height="10" viewBox="0 0 19 10" fill="none" xmlns="http://www.w3.org/2000/svg">
<path d="M17.1648 0H1.83523C0.823045 0 0 0.897 0 2V8C0 9.103 0.823045 10 1.83523 10H17.1648C18.177 10 19 9.103 19 8V2C19 0.897 18.177 0 17.1648 0ZM17.1648 8H1.83523C1.786 8 1.75232 7.984 1.73764 7.984C1.73159 7.984 1.72814 7.986 1.72727 7.992L1.71691 2.046C1.72295 2.036 1.76182 2 1.83523 2H3.45455V5H5.18182V2H6.90909V6H8.63636V2H10.3636V5H12.0909V2H13.8182V6H15.5455V2H17.1648C17.233 2.001 17.2701 2.028 17.2727 2.008L17.2831 7.954C17.277 7.964 17.2382 8 17.1648 8Z" fill="#0058AC"/>
</svg>
